<svg width="319" height="112" viewBox="0 0 319 112" fill="none" xmlns="http://www.w3.org/2000/svg">
<line y1="87" x2="316" y2="87" stroke="#3273DC" stroke-width="20"/>
<path d="M40.744 70.496C41.272 72.224 41.944 73.448 42.76 74.168C43.576 74.888 44.776 75.32 46.36 75.464L46.648 75.968L46.144 80.216C45.52 80.168 44.344 80.12 42.616 80.072C40.888 80.024 39.112 80 37.288 80C34.744 80 32.248 80.072 29.8 80.216C27.352 80.408 25.792 80.528 25.12 80.576L24.76 80L25.12 75.608C26.752 75.464 27.928 75.32 28.648 75.176C29.416 74.984 29.944 74.744 30.232 74.456C30.52 74.12 30.664 73.64 30.664 73.016C30.664 72.44 30.52 71.648 30.232 70.64L28.792 65.168C27.544 65.12 25.36 65.096 22.24 65.096C20.368 65.096 18.088 65.264 15.4 65.6L13.672 71C13.384 72.008 13.24 72.752 13.24 73.232C13.24 74.048 13.48 74.624 13.96 74.96C14.44 75.248 15.304 75.392 16.552 75.392H19.576L19.936 75.896L19.432 80.432C18.76 80.384 17.296 80.288 15.04 80.144C12.832 80.048 10.792 80 8.92 80C6.904 80 5.056 80.024 3.376 80.072C1.744 80.12 0.664 80.168 0.136 80.216L0.712 75.392C1.864 75.2 2.776 74.768 3.448 74.096C4.168 73.376 4.816 72.224 5.392 70.64L18.208 34.136L29.656 32.984L30.448 33.344C31.168 36.08 32.656 41.696 34.912 50.192C37.216 58.64 39.16 65.408 40.744 70.496ZM22.168 59.408C23.704 59.408 25.48 59.312 27.496 59.12L23.32 43.28H22.312L17.128 59.408H22.168ZM48.664 92.528C50.008 92.384 50.896 92.024 51.328 91.448C51.76 90.872 51.976 89.744 51.976 88.064L52.336 77.048V56.744C52.336 55.064 52.072 53.936 51.544 53.36C51.064 52.736 50.152 52.424 48.808 52.424H47.872L47.584 52.064L47.944 48.248C50.68 47.816 53.392 47.36 56.08 46.88C58.768 46.352 60.496 46.016 61.264 45.872L61.912 46.592C61.864 46.88 61.744 47.504 61.552 48.464C61.36 49.376 61.216 50.264 61.12 51.128L61.408 51.488C63.232 49.808 64.768 48.512 66.016 47.6C67.312 46.64 68.176 46.16 68.608 46.16C71.44 46.16 73.936 46.832 76.096 48.176C78.256 49.472 79.912 51.32 81.064 53.72C82.264 56.12 82.864 58.88 82.864 62C82.864 65.696 82.048 68.96 80.416 71.792C78.784 74.624 76.528 76.832 73.648 78.416C70.768 79.952 67.48 80.72 63.784 80.72C63.16 80.72 62.536 80.696 61.912 80.648C61.336 80.6 60.952 80.552 60.76 80.504V87.128C60.76 89.096 60.904 90.416 61.192 91.088C61.528 91.76 62.248 92.096 63.352 92.096C64.072 92.096 64.672 92.072 65.152 92.024C65.68 91.976 66.064 91.952 66.304 91.952L66.448 92.24L65.656 96.704C64.648 96.704 63.736 96.68 62.92 96.632L56.872 96.56C55.192 96.56 53.44 96.608 51.616 96.704C49.792 96.848 48.616 96.944 48.088 96.992L48.664 92.528ZM60.976 73.736C62.848 74.408 64.624 74.744 66.304 74.744C68.56 74.744 70.312 73.88 71.56 72.152C72.856 70.376 73.504 67.904 73.504 64.736C73.504 61.232 72.856 58.472 71.56 56.456C70.312 54.392 68.608 53.36 66.448 53.36C65.776 53.36 64.984 53.552 64.072 53.936C63.16 54.32 62.272 54.824 61.408 55.448C61.12 62.936 60.976 69.032 60.976 73.736ZM87.4062 92.528C88.7502 92.384 89.6382 92.024 90.0702 91.448C90.5022 90.872 90.7182 89.744 90.7182 88.064L91.0782 77.048V56.744C91.0782 55.064 90.8142 53.936 90.2862 53.36C89.8062 52.736 88.8942 52.424 87.5502 52.424H86.6142L86.3262 52.064L86.6862 48.248C89.4222 47.816 92.1342 47.36 94.8222 46.88C97.5102 46.352 99.2382 46.016 100.006 45.872L100.654 46.592C100.606 46.88 100.486 47.504 100.294 48.464C100.102 49.376 99.9582 50.264 99.8622 51.128L100.15 51.488C101.974 49.808 103.51 48.512 104.758 47.6C106.054 46.64 106.918 46.16 107.35 46.16C110.182 46.16 112.678 46.832 114.838 48.176C116.998 49.472 118.654 51.32 119.806 53.72C121.006 56.12 121.606 58.88 121.606 62C121.606 65.696 120.79 68.96 119.158 71.792C117.526 74.624 115.27 76.832 112.39 78.416C109.51 79.952 106.222 80.72 102.526 80.72C101.902 80.72 101.278 80.696 100.654 80.648C100.078 80.6 99.6942 80.552 99.5022 80.504V87.128C99.5022 89.096 99.6462 90.416 99.9342 91.088C100.27 91.76 100.99 92.096 102.094 92.096C102.814 92.096 103.414 92.072 103.894 92.024C104.422 91.976 104.806 91.952 105.046 91.952L105.19 92.24L104.398 96.704C103.39 96.704 102.478 96.68 101.662 96.632L95.6142 96.56C93.9342 96.56 92.1822 96.608 90.3582 96.704C88.5342 96.848 87.3582 96.944 86.8302 96.992L87.4062 92.528ZM99.7182 73.736C101.59 74.408 103.366 74.744 105.046 74.744C107.302 74.744 109.054 73.88 110.302 72.152C111.598 70.376 112.246 67.904 112.246 64.736C112.246 61.232 111.598 58.472 110.302 56.456C109.054 54.392 107.35 53.36 105.19 53.36C104.518 53.36 103.726 53.552 102.814 53.936C101.902 54.32 101.014 54.824 100.15 55.448C99.8622 62.936 99.7182 69.032 99.7182 73.736ZM161.5 41.552C161.452 40.448 161.236 39.656 160.852 39.176C160.516 38.696 159.94 38.456 159.124 38.456L156.604 38.528L156.388 37.952L156.892 33.488C157.564 33.536 158.812 33.608 160.636 33.704C162.46 33.752 164.308 33.776 166.18 33.776C167.668 33.776 169.3 33.728 171.076 33.632C172.9 33.536 174.1 33.464 174.676 33.416L174.316 38.24C172.732 38.48 171.58 38.936 170.86 39.608C170.188 40.28 169.828 41.336 169.78 42.776L168.772 81.008L161.212 81.944C157.9 76.664 154.684 71.648 151.564 66.896C148.444 62.144 145.9 58.328 143.932 55.448C141.964 52.568 140.716 50.744 140.188 49.976H139.468L139.396 72.152C139.444 73.352 139.636 74.192 139.972 74.672C140.356 75.152 141.004 75.392 141.916 75.392C142.444 75.392 143.02 75.368 143.644 75.32C144.316 75.224 144.772 75.176 145.012 75.176L145.372 75.68L144.652 80.288C143.98 80.24 142.708 80.168 140.836 80.072C139.012 80.024 137.188 80 135.364 80C133.732 80 131.98 80.072 130.108 80.216C128.284 80.408 127.108 80.528 126.58 80.576L127.084 75.752C128.524 75.56 129.58 75.128 130.252 74.456C130.972 73.736 131.356 72.656 131.404 71.216L132.34 42.776C132.34 41.24 131.932 40.184 131.116 39.608C130.348 38.984 128.788 38.552 126.436 38.312L125.932 37.592L126.436 33.416C126.964 33.464 128.116 33.536 129.892 33.632C131.668 33.728 133.3 33.776 134.788 33.776C136.084 33.776 137.452 33.752 138.892 33.704C140.332 33.608 141.268 33.536 141.7 33.488C145.588 39.872 149.764 46.424 154.228 53.144C158.692 59.864 160.924 63.176 160.924 63.08H161.644L161.5 41.552ZM194.619 59.192C194.619 57.128 194.067 55.544 192.963 54.44C191.907 53.288 190.419 52.712 188.499 52.712C187.299 52.712 185.883 53.048 184.251 53.72C182.667 54.344 181.251 55.136 180.003 56.096L179.427 55.736L178.059 51.416C180.891 49.832 183.579 48.512 186.123 47.456C188.667 46.4 190.419 45.872 191.379 45.872C195.171 45.872 198.123 46.736 200.235 48.464C202.395 50.192 203.475 52.616 203.475 55.736C203.475 56.744 203.259 58.928 202.827 62.288C202.299 66.944 202.035 69.68 202.035 70.496C202.035 71.408 202.251 72.128 202.683 72.656C203.163 73.136 203.787 73.376 204.555 73.376C205.563 73.376 206.715 72.968 208.011 72.152L209.091 73.664C208.131 75.44 206.979 77.024 205.635 78.416C204.339 79.76 203.163 80.576 202.107 80.864C199.947 80.864 198.243 80.408 196.995 79.496C195.795 78.536 195.075 77.144 194.835 75.32L194.331 75.104C192.651 76.784 191.091 78.128 189.651 79.136C188.211 80.096 187.107 80.576 186.339 80.576C184.515 80.576 182.835 80.12 181.299 79.208C179.811 78.296 178.635 77.048 177.771 75.464C176.907 73.832 176.475 72.032 176.475 70.064C176.475 68.528 176.859 67.232 177.627 66.176C178.395 65.072 179.403 64.376 180.651 64.088L194.547 60.848L194.619 59.192ZM186.843 66.896C185.691 67.232 185.115 68 185.115 69.2C185.115 70.592 185.475 71.672 186.195 72.44C186.963 73.208 188.019 73.592 189.363 73.592C190.035 73.592 190.803 73.424 191.667 73.088C192.531 72.704 193.371 72.2 194.187 71.576L194.331 64.808L186.843 66.896ZM231.88 76.04C233.032 75.752 233.848 75.32 234.328 74.744C234.856 74.12 235.144 73.208 235.192 72.008L235.408 59.696C235.408 55.52 233.872 53.432 230.8 53.432C229.072 53.432 227.008 54.344 224.608 56.168C224.128 64.808 223.888 70.16 223.888 72.224C223.888 73.472 224.032 74.336 224.32 74.816C224.656 75.248 225.232 75.464 226.048 75.464C226.384 75.464 226.744 75.44 227.128 75.392C227.512 75.344 227.776 75.32 227.92 75.32L228.064 75.68L227.344 80.216C226.816 80.168 225.808 80.12 224.32 80.072C222.832 80.024 221.296 80 219.712 80C217.744 80 215.944 80.024 214.312 80.072C212.68 80.12 211.6 80.168 211.072 80.216L211.72 75.68C213.112 75.584 214.072 75.272 214.6 74.744C215.176 74.168 215.464 73.208 215.464 71.864V56.744C215.464 55.064 215.2 53.936 214.672 53.36C214.192 52.736 213.28 52.424 211.936 52.424H211L210.712 52.064L211.072 48.248C213.856 47.816 216.592 47.36 219.28 46.88C222.016 46.352 223.768 46.016 224.536 45.872L225.112 46.592C225.016 46.88 224.872 47.528 224.68 48.536C224.488 49.544 224.368 50.552 224.32 51.56L224.536 51.776C226.264 50.384 228.04 49.064 229.864 47.816C231.736 46.52 233.08 45.872 233.896 45.872C239.416 45.872 242.824 47.888 244.12 51.92C245.464 50.72 247.168 49.424 249.232 48.032C251.344 46.592 252.808 45.872 253.624 45.872C257.08 45.872 259.744 46.688 261.616 48.32C263.536 49.952 264.496 52.256 264.496 55.232C264.496 56 264.304 58.544 263.92 62.864C263.44 67.664 263.2 70.76 263.2 72.152C263.2 73.4 263.368 74.288 263.704 74.816C264.04 75.296 264.64 75.536 265.504 75.536L267.664 75.464L267.808 75.752L267.088 80.216C266.512 80.168 265.432 80.12 263.848 80.072C262.312 80.024 260.752 80 259.168 80C258.016 80 256.552 80.048 254.776 80.144C253.048 80.24 251.896 80.312 251.32 80.36L251.824 75.752C252.928 75.608 253.696 75.272 254.128 74.744C254.608 74.168 254.872 73.256 254.92 72.008L255.136 59.696C255.136 55.52 253.6 53.432 250.528 53.432C248.752 53.432 246.736 54.296 244.48 56.024L243.544 72.152C243.544 73.4 243.712 74.288 244.048 74.816C244.384 75.296 244.936 75.536 245.704 75.536L247.72 75.464L247.864 75.752L247.144 80.216C246.616 80.168 245.608 80.12 244.12 80.072C242.632 80.024 241.096 80 239.512 80C238.36 80 236.872 80.072 235.048 80.216C233.224 80.408 232.024 80.528 231.448 80.576L231.88 76.04ZM280.543 63.8C280.687 66.968 281.527 69.44 283.063 71.216C284.647 72.944 286.783 73.808 289.471 73.808C290.815 73.808 292.135 73.664 293.431 73.376C294.727 73.04 295.783 72.704 296.599 72.368C297.415 71.984 297.943 71.744 298.183 71.648L298.687 71.864L299.911 75.536C299.911 75.584 299.143 76.088 297.607 77.048C296.119 78.008 294.439 78.896 292.567 79.712C290.743 80.48 289.063 80.864 287.527 80.864C282.439 80.864 278.431 79.376 275.503 76.4C272.623 73.424 271.183 69.368 271.183 64.232C271.183 60.776 271.927 57.656 273.415 54.872C274.903 52.088 276.943 49.904 279.535 48.32C282.127 46.688 285.031 45.872 288.247 45.872C296.359 45.872 300.415 50 300.415 58.256C300.415 59.12 300.343 59.96 300.199 60.776C300.055 61.592 299.959 62.12 299.911 62.36L299.047 63.152H280.543V63.8ZM290.191 58.616C290.719 58.52 291.079 58.376 291.271 58.184C291.463 57.992 291.559 57.584 291.559 56.96C291.559 53.408 290.047 51.632 287.023 51.632C285.151 51.632 283.639 52.28 282.487 53.576C281.383 54.824 280.735 56.672 280.543 59.12L290.191 58.616ZM309.444 80.792C307.716 80.792 306.396 80.312 305.484 79.352C304.572 78.344 304.116 77 304.116 75.32C304.116 73.592 304.644 72.176 305.7 71.072C306.756 69.968 308.172 69.416 309.948 69.416C311.628 69.416 312.948 69.92 313.908 70.928C314.868 71.888 315.348 73.184 315.348 74.816C315.348 76.592 314.796 78.032 313.692 79.136C312.636 80.24 311.22 80.792 309.444 80.792Z" fill="black"/>
</svg>
